<?xml version="1.0" encoding="UTF-8" standalone="no"?>
<svg
   xmlns:dc="http://purl.org/dc/elements/1.1/"
   xmlns:cc="http://creativecommons.org/ns#"
   xmlns:rdf="http://www.w3.org/1999/02/22-rdf-syntax-ns#"
   xmlns:svg="http://www.w3.org/2000/svg"
   xmlns="http://www.w3.org/2000/svg"
   xmlns:sodipodi="http://sodipodi.sourceforge.net/DTD/sodipodi-0.dtd"
   xmlns:inkscape="http://www.inkscape.org/namespaces/inkscape"
   width="210mm"
   height="297mm"
   viewBox="0 0 210 297"
   version="1.1"
   id="svg2827"
   inkscape:version="1.0.2 (e86c870879, 2021-01-15, custom)"
   sodipodi:docname="logo.svg">
  <defs
     id="defs2821">
    <inkscape:path-effect
       effect="bspline"
       id="path-effect3455"
       is_visible="true"
       lpeversion="1"
       weight="33.333333"
       steps="2"
       helper_size="0"
       apply_no_weight="true"
       apply_with_weight="true"
       only_selected="false" />
    <inkscape:path-effect
       effect="bspline"
       id="path-effect3451"
       is_visible="true"
       lpeversion="1"
       weight="33.333333"
       steps="2"
       helper_size="0"
       apply_no_weight="true"
       apply_with_weight="true"
       only_selected="false" />
    <inkscape:path-effect
       effect="bspline"
       id="path-effect3436"
       is_visible="true"
       lpeversion="1"
       weight="33.333333"
       steps="2"
       helper_size="0"
       apply_no_weight="true"
       apply_with_weight="true"
       only_selected="false" />
  </defs>
  <sodipodi:namedview
     id="base"
     pagecolor="#ffffff"
     bordercolor="#666666"
     borderopacity="1.0"
     inkscape:pageopacity="0.0"
     inkscape:pageshadow="2"
     inkscape:zoom="1.4"
     inkscape:cx="230.64997"
     inkscape:cy="277.2903"
     inkscape:document-units="mm"
     inkscape:current-layer="layer1"
     inkscape:document-rotation="0"
     showgrid="false"
     inkscape:window-width="1920"
     inkscape:window-height="1027"
     inkscape:window-x="1912"
     inkscape:window-y="-8"
     inkscape:window-maximized="1" />
  <metadata
     id="metadata2824">
    <rdf:RDF>
      <cc:Work
         rdf:about="">
        <dc:format>image/svg+xml</dc:format>
        <dc:type
           rdf:resource="http://purl.org/dc/dcmitype/StillImage" />
        <dc:title></dc:title>
      </cc:Work>
    </rdf:RDF>
  </metadata>
  <g
     inkscape:label="Layer 1"
     inkscape:groupmode="layer"
     id="layer1">
    <circle
       style="fill:#00e676;fill-opacity:1;stroke:#008c46;stroke-width:1;stroke-opacity:0"
       id="path3390"
       sodipodi:type="arc"
       sodipodi:cx="56.412945"
       sodipodi:cy="52.444195"
       sodipodi:rx="39.593006"
       sodipodi:ry="39.593006"
       sodipodi:start="0"
       sodipodi:end="6.257878"
       sodipodi:open="true"
       sodipodi:arc-type="arc"
       d="M 96.005951,52.444195 A 39.593006,39.593006 0 0 1 56.663441,92.036409 39.593006,39.593006 0 0 1 16.823108,52.945178 39.593006,39.593006 0 0 1 55.661496,12.85832 39.593006,39.593006 0 0 1 95.993273,51.442309" />
    <path
       style="fill:#9c4dcc;fill-opacity:1;stroke:none;stroke-width:0.327985px;stroke-linecap:butt;stroke-linejoin:miter;stroke-opacity:1"
       d="m 82.586256,28.344515 c -18.531582,2.112793 -37.062788,4.225544 -37.044413,10.475372 0.01837,6.249827 18.585284,16.636396 19.157213,23.662967 0.571929,7.026571 -16.85051,10.692675 -34.272938,14.358777"
       id="path3453"
       inkscape:path-effect="#path-effect3455"
       inkscape:original-d="M 82.586256,28.344515 C 64.054708,30.457603 45.523502,32.570353 26.992631,34.682767 45.559992,45.070118 64.126902,55.456686 82.694479,65.843099 65.27105,69.509734 47.848611,73.175838 30.426118,76.841631"
       sodipodi:nodetypes="cccc" />
    <a
       id="a3438"
       transform="translate(1.1339289,2.078869)">
      <text
         xml:space="preserve"
         style="font-style:normal;font-variant:normal;font-weight:bold;font-stretch:normal;font-size:50.8px;line-height:1.25;font-family:sans-serif;-inkscape-font-specification:'sans-serif Bold';fill:#38006b;fill-opacity:1;stroke-width:0.264583"
         x="36.663689"
         y="69.358627"
         id="text3394"><tspan
           sodipodi:role="line"
           id="tspan3392"
           x="36.663689"
           y="69.358627"
           style="font-style:normal;font-variant:normal;font-weight:bold;font-stretch:normal;font-family:sans-serif;-inkscape-font-specification:'sans-serif Bold';fill:#38006b;fill-opacity:1;stroke-width:0.264583">S</tspan></text>
    </a>
    <circle
       style="fill:#9c4dcc;fill-opacity:1;stroke:none;stroke-width:1;stroke-opacity:0"
       id="path3463"
       sodipodi:type="arc"
       sodipodi:cx="54.523064"
       sodipodi:cy="22.017113"
       sodipodi:rx="3.4962797"
       sodipodi:ry="3.4962797"
       sodipodi:start="0"
       sodipodi:end="6.257878"
       sodipodi:open="true"
       sodipodi:arc-type="arc"
       d="m 58.019343,22.017113 a 3.4962797,3.4962797 0 0 1 -3.474159,3.496209 3.4962797,3.4962797 0 0 1 -3.51812,-3.45197 3.4962797,3.4962797 0 0 1 3.429643,-3.539889 3.4962797,3.4962797 0 0 1 3.561517,3.407178" />
    <circle
       style="fill:#9c4dcc;fill-opacity:1;stroke:none;stroke-width:1.4;stroke-opacity:0"
       id="path3465"
       sodipodi:type="arc"
       sodipodi:cx="28.348215"
       sodipodi:cy="51.026783"
       sodipodi:rx="6.6145835"
       sodipodi:ry="6.6145835"
       sodipodi:start="0"
       sodipodi:end="6.257878"
       sodipodi:open="true"
       sodipodi:arc-type="arc"
       d="m 34.962799,51.026783 a 6.6145835,6.6145835 0 0 1 -6.572735,6.614451 6.6145835,6.6145835 0 0 1 -6.655903,-6.530755 6.6145835,6.6145835 0 0 1 6.488514,-6.697088 6.6145835,6.6145835 0 0 1 6.738006,6.446013" />
    <circle
       style="fill:#9c4dcc;fill-opacity:1;stroke:none;stroke-width:1;stroke-opacity:0"
       id="path3467"
       sodipodi:type="arc"
       sodipodi:cx="67.563248"
       sodipodi:cy="80.414429"
       sodipodi:rx="3.8742559"
       sodipodi:ry="3.8742559"
       sodipodi:start="0"
       sodipodi:end="6.257878"
       sodipodi:open="true"
       sodipodi:arc-type="arc"
       d="m 71.437504,80.414429 a 3.8742559,3.8742559 0 0 1 -3.849745,3.874178 3.8742559,3.8742559 0 0 1 -3.898457,-3.825156 3.8742559,3.8742559 0 0 1 3.800415,-3.92258 3.8742559,3.8742559 0 0 1 3.946546,3.775521" />
    <circle
       style="fill:#9c4dcc;fill-opacity:1;stroke:none;stroke-width:1;stroke-opacity:0"
       id="path3469"
       sodipodi:type="arc"
       sodipodi:cx="81.359375"
       sodipodi:cy="53.011162"
       sodipodi:rx="3.8742559"
       sodipodi:ry="3.8742559"
       sodipodi:start="0"
       sodipodi:end="6.257878"
       sodipodi:open="true"
       sodipodi:arc-type="arc"
       d="m 85.233631,53.011162 a 3.8742559,3.8742559 0 0 1 -3.849744,3.874178 3.8742559,3.8742559 0 0 1 -3.898458,-3.825156 3.8742559,3.8742559 0 0 1 3.800415,-3.92258 3.8742559,3.8742559 0 0 1 3.946546,3.775521" />
  </g>
</svg>
